<svg width="80" height="80" viewBox="0 0 80 80" fill="none" xmlns="http://www.w3.org/2000/svg">
<rect width="80" height="80" rx="40" fill="#FFD658"/>
<path d="M53.0957 36.0098V43.1875C53.0957 46.3125 52.8027 49.0371 52.2168 51.3613C51.6309 53.666 50.7715 55.5801 49.6387 57.1035C48.5254 58.6074 47.1582 59.7305 45.5371 60.4727C43.9355 61.2148 42.0996 61.5859 40.0293 61.5859C38.3887 61.5859 36.8848 61.3516 35.5176 60.8828C34.1504 60.4141 32.9297 59.7012 31.8555 58.7441C30.8008 57.7676 29.9023 56.5469 29.1602 55.082C28.418 53.6172 27.8516 51.8984 27.4609 49.9258C27.0703 47.9336 26.875 45.6875 26.875 43.1875V36.0098C26.875 32.8652 27.168 30.1504 27.7539 27.8652C28.3594 25.5801 29.2188 23.6855 30.332 22.1816C31.4648 20.6777 32.8418 19.5645 34.4629 18.8418C36.084 18.0996 37.9199 17.7285 39.9707 17.7285C41.6113 17.7285 43.1152 17.9727 44.4824 18.4609C45.8691 18.9297 47.0898 19.6328 48.1445 20.5703C49.2188 21.5078 50.1172 22.709 50.8398 24.1738C51.582 25.6191 52.1387 27.3281 52.5098 29.3008C52.9004 31.2734 53.0957 33.5098 53.0957 36.0098ZM49.6094 43.5977V35.5703C49.6094 33.6367 49.4727 31.8789 49.1992 30.2969C48.9453 28.7148 48.5645 27.3281 48.0566 26.1367C47.5488 24.9453 46.9043 23.9492 46.123 23.1484C45.3613 22.3477 44.4629 21.752 43.4277 21.3613C42.4121 20.9512 41.2598 20.7461 39.9707 20.7461C38.3887 20.7461 36.9922 21.0684 35.7812 21.7129C34.5898 22.3379 33.5938 23.2754 32.793 24.5254C31.9922 25.7559 31.3867 27.2988 30.9766 29.1543C30.5859 31.0098 30.3906 33.1484 30.3906 35.5703V43.5977C30.3906 45.5117 30.5176 47.2598 30.7715 48.8418C31.0254 50.4043 31.416 51.791 31.9434 53.002C32.4707 54.2129 33.1152 55.2383 33.877 56.0781C34.6582 56.8984 35.5566 57.5234 36.5723 57.9531C37.6074 58.3633 38.7598 58.5684 40.0293 58.5684C41.6504 58.5684 43.0566 58.2461 44.248 57.6016C45.4395 56.9375 46.4355 55.9707 47.2363 54.7012C48.0371 53.4121 48.6328 51.8398 49.0234 49.9844C49.4141 48.1094 49.6094 45.9805 49.6094 43.5977Z" fill="#152F4E"/>
</svg>
